<?xml version="1.0" standalone="no"?>
<!DOCTYPE svg PUBLIC "-//W3C//DTD SVG 20010904//EN"
 "http://www.w3.org/TR/2001/REC-SVG-20010904/DTD/svg10.dtd">
<svg version="1.0" xmlns="http://www.w3.org/2000/svg"
 width="500.000000pt" height="500.000000pt" viewBox="0 0 500.000000 500.000000"
 preserveAspectRatio="xMidYMid meet">

<g transform="translate(0.000000,500.000000) scale(0.100000,-0.100000)"
fill="#000000" stroke="none">
<path d="M3358 4362 c-8 -9 -23 -30 -33 -47 -31 -49 -105 -123 -179 -179 -70
-52 -150 -101 -371 -226 -215 -122 -306 -214 -339 -342 l-13 -52 -22 66 c-32
95 -85 152 -186 199 -96 44 -212 74 -355 90 -117 13 -513 7 -740 -11 -202 -16
-543 -60 -557 -72 -7 -6 -13 -32 -13 -59 0 -41 -3 -49 -18 -49 -35 0 -55 -35
-57 -103 -2 -53 -6 -67 -29 -90 -17 -17 -26 -37 -26 -57 0 -33 -1 -34 -47 -21
-79 23 -173 -41 -173 -119 0 -21 79 -389 176 -817 171 -760 282 -1253 350
-1561 19 -84 40 -166 49 -181 18 -36 69 -79 102 -87 13 -4 136 -1 271 5 136 6
353 16 482 21 281 12 614 26 934 40 l233 11 143 -51 c79 -27 156 -50 171 -50
15 0 94 34 176 75 132 66 161 77 273 99 69 14 188 38 265 55 107 22 211 34
440 51 442 31 454 34 491 109 22 46 13 92 -30 145 -40 48 -43 56 -21 56 23 0
30 28 11 49 -16 17 -16 19 -1 25 9 3 29 6 45 6 58 0 57 11 -23 262 -83 258
-138 445 -286 963 -55 193 -123 422 -151 510 -146 452 -261 785 -283 813 -8
10 -34 11 -106 7 -53 -3 -105 -8 -117 -10 -17 -4 -30 10 -71 78 -87 142 -314
451 -340 461 -6 3 -17 -3 -25 -12z m67 -100 c197 -245 491 -742 559 -942 43
-126 29 -358 -30 -477 -69 -141 -230 -255 -414 -293 -36 -7 -69 -16 -73 -20
-5 -4 3 -44 17 -89 69 -217 83 -451 37 -573 -32 -83 -112 -200 -200 -292 -147
-155 -229 -271 -262 -370 l-16 -51 -46 190 c-51 212 -101 384 -207 715 -82
258 -161 544 -185 675 -9 50 -50 227 -91 395 l-74 306 15 57 c45 173 120 248
410 407 263 144 439 274 496 366 11 19 24 34 27 34 4 0 20 -17 37 -38z m-1525
-467 c134 -21 275 -67 337 -108 26 -17 62 -53 80 -79 58 -88 83 -182 219 -833
64 -308 119 -518 219 -830 48 -148 98 -304 111 -347 35 -110 122 -408 119
-408 -1 0 -27 15 -58 33 -179 108 -533 147 -957 106 -189 -18 -659 -87 -721
-105 -18 -5 -7 -42 -144 506 -121 482 -183 732 -339 1375 -159 652 -156 639
-153 641 8 8 370 48 532 59 257 17 614 13 755 -10z m2094 -39 c18 -44 149
-439 225 -681 79 -254 176 -597 251 -890 91 -355 162 -584 245 -779 9 -21 14
-40 11 -43 -2 -3 -28 2 -58 10 -174 49 -379 71 -658 71 -181 0 -257 -4 -330
-17 -215 -40 -420 -124 -521 -215 l-51 -46 25 51 c66 129 247 327 502 547 354
305 455 432 511 641 15 57 19 105 18 255 0 160 -4 202 -27 312 -52 248 -141
472 -291 736 -20 35 -36 68 -36 73 0 5 38 9 85 9 l85 0 14 -34z m-3426 -145
c7 -4 26 -73 42 -152 51 -262 162 -705 375 -1504 174 -654 197 -749 186 -778
-12 -32 -13 -32 -52 -11 -41 21 -59 5 -59 -51 0 -24 -6 -48 -14 -54 -7 -6 -21
-38 -30 -71 -10 -36 -23 -60 -31 -60 -7 0 -23 -12 -34 -26 l-20 -25 -10 38
c-126 496 -189 773 -381 1678 -70 331 -114 524 -135 596 -13 46 -23 84 -22 84
64 25 87 62 87 135 0 32 4 40 19 40 33 0 46 29 43 92 -3 75 4 89 36 69z m3527
-721 c27 -223 14 -424 -35 -551 -31 -77 -99 -175 -176 -254 -66 -67 -326 -296
-331 -291 -1 1 10 31 25 66 25 60 27 75 27 205 -1 149 -15 236 -61 362 -13 37
-23 67 -22 68 2 1 35 9 73 18 244 58 432 246 470 471 3 21 8 36 10 34 2 -2 11
-60 20 -128z m343 -1534 c62 -8 139 -20 172 -27 54 -10 58 -13 47 -30 -9 -14
-9 -21 1 -31 17 -17 15 -25 -8 -31 -24 -6 -26 -34 -3 -59 15 -17 15 -18 -5
-18 -51 0 -69 -29 -34 -57 15 -13 14 -14 -13 -9 -251 46 -570 53 -776 17 -227
-39 -401 -98 -621 -208 l-126 -63 -52 35 c-68 46 -129 62 -280 75 -186 15
-452 -1 -1080 -65 -275 -29 -571 -61 -642 -71 -27 -4 -48 -4 -48 -2 0 17 32
76 49 92 12 11 26 37 33 58 8 26 21 44 40 54 24 12 28 21 28 55 0 40 1 40 29
34 30 -6 62 14 73 45 4 13 373 68 703 105 420 47 774 22 949 -66 83 -42 130
-90 162 -166 l28 -65 11 44 c46 182 299 321 671 368 101 13 560 3 692 -14z"/>
<path d="M575 3207 c13 -160 99 -590 206 -1022 51 -209 191 -716 196 -711 2 2
-30 147 -71 322 -41 176 -123 535 -182 799 -59 264 -117 525 -130 580 l-24
100 5 -68z"/>
<path d="M491 3073 c-1 -12 3 -44 9 -70 5 -26 19 -100 30 -163 47 -253 161
-721 297 -1220 69 -255 83 -301 83 -273 0 10 -76 347 -138 613 -112 475 -281
1144 -281 1113z"/>
<path d="M601 2864 c0 -11 3 -14 6 -6 3 7 2 16 -1 19 -3 4 -6 -2 -5 -13z"/>
<path d="M611 2820 c-1 -31 50 -308 90 -489 74 -339 222 -938 235 -950 8 -8 4
8 -51 252 -30 133 -102 456 -160 717 -58 261 -107 480 -109 485 -3 6 -5 -1 -5
-15z"/>
<path d="M820 2404 c0 -68 85 -411 215 -879 20 -71 46 -163 57 -203 11 -40 23
-71 25 -68 14 14 -100 478 -244 996 -47 169 -53 187 -53 154z"/>
<path d="M755 1755 c10 -111 74 -395 130 -580 41 -131 41 -91 1 71 -19 76 -48
200 -65 274 -18 74 -40 171 -51 215 l-20 80 5 -60z"/>
<path d="M3705 1334 c-201 -37 -406 -124 -508 -215 -77 -68 -94 -103 -22 -44
111 90 316 173 531 215 127 24 378 43 479 35 59 -4 66 -3 45 6 -40 19 -427 22
-525 3z"/>
<path d="M4055 1282 c-19 -5 45 -12 180 -20 116 -7 239 -15 275 -18 36 -3 62
-3 59 0 -22 23 -448 54 -514 38z"/>
<path d="M3709 1250 c-232 -21 -453 -118 -573 -250 -45 -50 -42 -63 5 -19 133
124 389 227 637 255 34 3 62 11 62 15 0 10 -5 10 -131 -1z"/>
<path d="M2090 1234 c-125 -16 -361 -61 -392 -74 -19 -9 -17 -10 12 -5 328 45
666 61 810 36 88 -15 192 -44 257 -72 25 -11 48 -18 50 -16 6 7 -146 83 -202
102 -134 45 -329 56 -535 29z"/>
<path d="M3915 1219 c-292 -30 -581 -125 -722 -237 -87 -69 -84 -89 4 -29 236
160 689 251 1153 232 90 -3 161 -3 158 1 -26 26 -441 49 -593 33z"/>
<path d="M1915 1144 c-243 -28 -576 -107 -706 -169 -60 -28 -52 -27 106 15
365 96 813 149 1154 136 96 -3 173 -4 170 -2 -2 3 -65 12 -139 20 -162 19
-418 19 -585 0z"/>
<path d="M2140 1099 c-170 -20 -494 -80 -509 -95 -6 -6 -6 -6 166 21 236 36
349 46 548 45 289 -2 304 -15 25 -22 -135 -4 -303 -14 -375 -23 -156 -19 -383
-52 -445 -65 -25 -5 -133 -26 -240 -47 -107 -20 -187 -39 -178 -41 9 -2 157
17 330 42 533 77 838 102 1131 93 225 -7 297 -22 395 -81 39 -25 72 -41 72
-36 0 15 -93 89 -150 119 -137 73 -290 101 -530 100 -91 -1 -199 -5 -240 -10z"/>
</g>
</svg>
